<svg width="35" height="36" viewBox="0 0 35 36" fill="none" xmlns="http://www.w3.org/2000/svg">
<g opacity="0.6">
<path opacity="0.6" d="M13.3536 2.9754C13.3478 3.51055 13.5468 4.02765 13.9098 4.42073L14.0409 4.5519L15.7103 6.22698L16.5246 7.04823L16.5572 7.08082C16.6939 7.23351 16.7645 7.43424 16.7534 7.63891C16.7543 7.74647 16.7339 7.85306 16.6934 7.95268C16.6528 8.05231 16.593 8.14289 16.5173 8.2192C16.4416 8.29558 16.3515 8.35614 16.2523 8.39753C16.153 8.43885 16.0466 8.46015 15.9391 8.46015C15.7367 8.45989 15.5404 8.3903 15.3829 8.26298L14.9578 8.68993C15.2251 8.93857 15.575 9.07912 15.94 9.08422C16.1603 9.0817 16.3773 9.03031 16.5754 8.93385C16.7735 8.83733 16.9478 8.69807 17.0857 8.52614C17.2111 8.68832 17.3697 8.82184 17.5509 8.91778C17.732 9.01365 17.9316 9.06963 18.1362 9.08209C18.3407 9.09449 18.5456 9.06305 18.737 8.98977C18.9285 8.91649 19.1021 8.80318 19.2461 8.65733L18.8211 8.23037C18.7441 8.30733 18.652 8.36744 18.5507 8.40695C18.4494 8.44653 18.341 8.46461 18.2323 8.46015C18.1248 8.46015 18.0184 8.43885 17.9192 8.39753C17.8199 8.35614 17.7299 8.29558 17.6542 8.2192C17.5784 8.14289 17.5186 8.05231 17.4781 7.95268C17.4375 7.85306 17.4171 7.74647 17.4179 7.63891C17.4239 7.42126 17.5047 7.21235 17.6468 7.04741L18.4611 6.22617L20.1631 4.51524L20.2282 4.44925C20.6065 4.05027 20.8172 3.52124 20.817 2.97133C20.8177 2.69568 20.764 2.4226 20.659 2.16778C20.5539 1.91296 20.3996 1.68143 20.2047 1.48648C20.01 1.29153 19.7786 1.13701 19.524 1.0318C19.2694 0.926584 18.9964 0.872754 18.7209 0.873399C18.414 0.870233 18.1104 0.936521 17.8327 1.06731C17.5551 1.19809 17.3106 1.38999 17.1175 1.62865C16.9132 1.39453 16.6618 1.20622 16.3797 1.07607C16.0977 0.945915 15.7913 0.876851 15.4807 0.873399C14.9202 0.870795 14.3816 1.09059 13.983 1.48461C13.5842 1.87863 13.3579 2.41472 13.3536 2.9754ZM17.2486 3.30129C17.1997 3.33085 17.1421 3.34238 17.0857 3.33388C17.0294 3.3389 16.9729 3.32759 16.9228 3.30129C16.8684 3.27189 16.822 3.22953 16.7878 3.17796C16.7536 3.12638 16.7325 3.06717 16.7266 3.00554C16.7254 2.9624 16.7336 2.91951 16.7506 2.87984C16.7676 2.84017 16.7931 2.80467 16.8251 2.77579L16.8577 2.7432L16.9228 2.67721L17.0857 2.51426L17.2486 2.67721L17.2811 2.7098L17.3797 2.80838C17.4159 2.86839 17.4381 2.93577 17.4448 3.00554C17.4417 3.06826 17.4219 3.12901 17.3874 3.18145C17.3529 3.23391 17.3049 3.27613 17.2486 3.30374V3.30129ZM13.9758 2.9754C13.975 2.77724 14.0134 2.58088 14.0887 2.3976C14.164 2.21431 14.2748 2.04771 14.4145 1.90737C14.5544 1.76702 14.7206 1.65568 14.9035 1.57975C15.0865 1.50382 15.2826 1.46478 15.4807 1.46489C15.8867 1.47148 16.2741 1.63635 16.5605 1.9244L16.659 2.02298L16.4302 2.25273L16.3976 2.28533C16.3127 2.37201 16.2458 2.47468 16.2008 2.58739C16.1557 2.70011 16.1336 2.82063 16.1354 2.94199C16.1369 3.07935 16.1707 3.21442 16.2339 3.33632C16.3328 3.5426 16.4929 3.71331 16.6924 3.82516C16.725 3.85775 16.7909 3.85775 16.8235 3.89115C16.9081 3.91813 16.9971 3.92918 17.0857 3.92375C17.1745 3.93136 17.2638 3.92027 17.3479 3.89115C17.3973 3.88312 17.4431 3.86009 17.479 3.82516C17.6854 3.72229 17.848 3.54886 17.9375 3.33632C18.0008 3.21442 18.0345 3.07935 18.036 2.94199C18.0364 2.81308 18.0105 2.68545 17.9597 2.56693C17.909 2.44841 17.8347 2.34149 17.7412 2.25273L17.5067 2.02298L17.6696 1.9244C17.8815 1.71599 18.1504 1.5751 18.4423 1.51951C18.7343 1.46393 19.0361 1.49615 19.3097 1.6121C19.5833 1.72805 19.8165 1.92254 19.9797 2.17098C20.1428 2.41944 20.2288 2.7107 20.2266 3.00799C20.229 3.20263 20.1927 3.3958 20.1197 3.57625C20.0467 3.75669 19.9386 3.9208 19.8015 4.05899L19.6387 4.19016L19.2135 4.61708L18.725 5.10592L17.2811 6.5545L17.1501 6.68567C17.1175 6.71826 17.1175 6.75167 17.0849 6.75167C17.0523 6.71908 17.0523 6.68567 17.0198 6.65309L16.9212 6.5545L15.4481 5.07658L14.4009 4.02559C14.2639 3.88749 14.1558 3.72352 14.0829 3.54322C14.0099 3.36293 13.9735 3.1699 13.9758 2.9754Z" fill="#FF417A"/>
</g>
<path d="M31.19 7.67045C30.8327 7.31322 30.4007 7.03962 29.9251 6.8693C29.4494 6.69899 28.942 6.6362 28.4392 6.68546H28.3407V6.58688C28.4148 5.88299 28.2684 5.17347 27.9219 4.55642C27.5753 3.93937 27.0457 3.44528 26.4063 3.14246C25.7669 2.83964 25.0492 2.74304 24.3525 2.86604C23.6558 2.98903 23.0146 3.32553 22.5174 3.82903C22.2122 4.12983 21.9677 4.48667 21.7975 4.88002C21.6342 5.27795 21.5347 5.6992 21.5027 6.12819V12.4651C21.4784 12.8038 21.3265 13.1206 21.0777 13.3516C20.808 13.6198 20.4432 13.7704 20.063 13.7704C19.6827 13.7704 19.3179 13.6198 19.0483 13.3516C18.8117 13.1119 18.662 12.7998 18.6232 12.4651H17.7715C17.8006 13.021 18.0324 13.5468 18.4229 13.943C18.6745 14.191 18.9789 14.3788 19.3132 14.4925C19.6475 14.6062 20.0032 14.6429 20.3537 14.5997H20.4587V14.6983C20.4075 15.0497 20.4398 15.4083 20.5529 15.7449C20.6661 16.0816 20.8571 16.3868 21.1102 16.6357C21.53 17.0528 22.09 17.2985 22.6811 17.325V16.472C22.3236 16.4484 21.9866 16.2968 21.7316 16.045C21.5888 15.9095 21.4747 15.7466 21.3959 15.566C21.3171 15.3855 21.2754 15.191 21.2731 14.9941C21.2743 14.6117 21.4272 14.2453 21.6982 13.9757C21.9789 13.7031 22.3543 13.5501 22.7454 13.5488H28.8325C29.2788 13.5487 29.7205 13.4585 30.131 13.2835C30.5416 13.1085 30.9126 12.8523 31.2218 12.5303C31.5436 12.2128 31.799 11.8344 31.9732 11.4171C32.1474 10.9999 32.2369 10.5522 32.2365 10.1C32.21 9.18627 31.8357 8.31718 31.19 7.67045ZM30.6013 11.9396C30.1369 12.3981 29.5186 12.6673 28.8667 12.6949H22.3203V6.25854C22.3184 5.91755 22.3839 5.57954 22.513 5.26396C22.6422 4.94838 22.8324 4.66145 23.0728 4.4197C23.3096 4.17797 23.5921 3.98592 23.904 3.85482C24.2159 3.72372 24.5508 3.65619 24.8891 3.65619C25.2274 3.65619 25.5623 3.72372 25.8742 3.85482C26.1861 3.98592 26.4687 4.17797 26.7055 4.4197C26.953 4.66994 27.1472 4.96772 27.2765 5.29509C27.4059 5.62247 27.4676 5.97265 27.4579 6.32454V6.65043H26.8358C26.6393 6.65291 26.4454 6.69486 26.2656 6.7738C26.0857 6.85273 25.9234 6.96704 25.7886 7.10993C25.6395 7.26326 25.5178 7.44099 25.4287 7.63546C25.2977 7.98475 25.2977 8.36967 25.4287 8.71903L25.5271 8.9162C25.5955 9.04927 25.684 9.17097 25.7894 9.27711C25.8841 9.3717 25.9942 9.44937 26.1151 9.50689H26.1477L26.3439 9.60542C26.6806 9.7368 27.0544 9.7368 27.3911 9.60542C27.5874 9.53633 27.7661 9.42509 27.9148 9.27957C28.0607 9.13953 28.1766 8.97121 28.2554 8.78495C28.3342 8.59862 28.3743 8.39828 28.3733 8.196V7.53603L28.4718 7.50343H28.7976C29.1378 7.50162 29.4751 7.56747 29.7898 7.69712C30.1045 7.82676 30.3903 8.01767 30.6306 8.25869C31.1075 8.75441 31.3714 9.41715 31.3659 10.1051C31.3604 10.7931 31.086 11.4516 30.6013 11.9396ZM27.4921 7.50672V8.26198C27.4616 8.41448 27.3808 8.55226 27.2627 8.65343C27.1446 8.7546 26.996 8.81329 26.8407 8.82007C26.7736 8.8253 26.7062 8.81413 26.6444 8.78746C26.5458 8.75324 26.4563 8.69701 26.3826 8.62308C26.309 8.5491 26.2532 8.45935 26.2194 8.36057C26.1874 8.24636 26.1856 8.12582 26.2141 8.0107C26.2427 7.89558 26.3006 7.78989 26.3822 7.7039C26.4945 7.58768 26.6461 7.51744 26.8073 7.50672H27.4946H27.4921Z" fill="#FF417A"/>
<g opacity="0.6">
<path opacity="0.6" d="M32.1068 14.2716C31.5732 14.2662 31.0578 14.466 30.6671 14.8297L30.536 14.9609L28.8698 16.6343L28.0555 17.4555L28.0229 17.4882C27.9478 17.5561 27.86 17.6084 27.7645 17.6423C27.669 17.6761 27.5679 17.6907 27.4667 17.6853C27.3593 17.6853 27.2528 17.664 27.1536 17.6227C27.0544 17.5813 26.9643 17.5208 26.8886 17.4444C26.8129 17.3681 26.7531 17.2775 26.7125 17.1779C26.672 17.0782 26.6516 16.9716 26.6524 16.8641C26.6492 16.6637 26.7131 16.4681 26.834 16.3085L26.4089 15.8815C26.1612 16.1501 26.0213 16.501 26.0164 16.8665C26.0188 17.0873 26.0699 17.3048 26.166 17.5035C26.2622 17.7022 26.401 17.8773 26.5726 18.0161C26.4109 18.1425 26.2779 18.3018 26.1824 18.4835C26.0869 18.6653 26.0311 18.8652 26.0188 19.0701C26.0064 19.275 26.0376 19.4803 26.1105 19.6721C26.1834 19.8641 26.2962 20.0383 26.4415 20.1833L26.8666 19.7563C26.7898 19.6789 26.7298 19.5863 26.6905 19.4845C26.6511 19.3827 26.6332 19.2739 26.6377 19.1649C26.6369 19.0573 26.6573 18.9507 26.6979 18.8511C26.7384 18.7515 26.7982 18.6609 26.8739 18.5846C26.9497 18.5082 27.0397 18.4476 27.139 18.4062C27.2382 18.3649 27.3446 18.3436 27.4521 18.3436C27.669 18.3499 27.877 18.4311 28.0409 18.5734L28.8552 19.3946L30.5572 21.1055L30.6223 21.1716C31.019 21.5511 31.5466 21.7629 32.0954 21.763C32.3712 21.7635 32.6442 21.7093 32.899 21.6038C33.1537 21.4982 33.385 21.3433 33.5797 21.1479C33.7743 20.9526 33.9285 20.7207 34.0332 20.4654C34.1379 20.2103 34.1912 19.9369 34.1899 19.661C34.1934 19.3535 34.1275 19.0491 33.9972 18.7706C33.867 18.492 33.6757 18.2463 33.4374 18.0519C33.6703 17.8529 33.8579 17.6064 33.9877 17.3289C34.1175 17.0513 34.1864 16.7492 34.1899 16.4429C34.2039 16.1614 34.1602 15.88 34.0616 15.616C33.963 15.352 33.8116 15.111 33.6165 14.9077C33.4214 14.7044 33.1869 14.543 32.9273 14.4337C32.6677 14.3243 32.3885 14.2692 32.1068 14.2716ZM31.8121 18.1464C31.7825 18.0976 31.7709 18.04 31.7795 17.9835C31.7746 17.9272 31.7859 17.8706 31.8121 17.8205C31.8412 17.766 31.8834 17.7194 31.9347 17.6851C31.9862 17.6507 32.0453 17.6295 32.1068 17.6234C32.1498 17.6223 32.1926 17.6305 32.2321 17.6474C32.2716 17.6645 32.307 17.6899 32.3357 17.722L32.3682 17.7545L32.4334 17.8205L32.5963 17.9835L32.4334 18.1464L32.4008 18.2124L32.3022 18.2784C32.2426 18.315 32.1756 18.3375 32.106 18.3445C32.043 18.3447 31.9813 18.3259 31.9289 18.2906C31.8767 18.2553 31.8362 18.2051 31.8128 18.1464H31.8121ZM32.1068 14.8623C32.305 14.862 32.5013 14.9008 32.6843 14.9767C32.8675 15.0525 33.0337 15.1639 33.1737 15.3042C33.3136 15.4446 33.4245 15.6113 33.4998 15.7947C33.5751 15.9781 33.6134 16.1745 33.6125 16.3728C33.6061 16.7798 33.4417 17.1684 33.1541 17.4564L33.0555 17.555L32.8267 17.3252L32.7941 17.2926C32.7082 17.208 32.6064 17.1413 32.4946 17.0963C32.3828 17.0513 32.2632 17.0288 32.1427 17.0303C32.0059 17.0318 31.8714 17.0656 31.7502 17.1289C31.5439 17.228 31.3732 17.3885 31.2615 17.5884C31.2289 17.621 31.2289 17.6869 31.1964 17.7195C31.1696 17.8043 31.1585 17.8932 31.1638 17.9819C31.1563 18.0706 31.1674 18.16 31.1964 18.2442C31.2045 18.2935 31.2272 18.3392 31.2615 18.3754C31.3641 18.5822 31.5375 18.7452 31.7502 18.8349C31.8714 18.8982 32.0059 18.9319 32.1427 18.9335C32.2713 18.9339 32.3987 18.9078 32.5169 18.8569C32.6352 18.806 32.7417 18.7315 32.8299 18.6377L33.0588 18.408L33.1899 18.5391C33.4617 18.8216 33.6139 19.1981 33.615 19.5901C33.6157 19.7884 33.5773 19.9848 33.502 20.1681C33.4266 20.3515 33.3158 20.5181 33.1759 20.6585C33.036 20.7988 32.8697 20.9101 32.6867 20.986C32.5036 21.0619 32.3074 21.1009 32.1093 21.1007C31.9151 21.1031 31.7223 21.0666 31.5424 20.9932C31.3626 20.92 31.1993 20.8113 31.0621 20.6737L30.9309 20.5426L30.5059 20.1156L30.0172 19.6268L28.5726 18.1823L28.4415 18.0511C28.409 18.0185 28.3764 18.0185 28.3764 17.9852C28.409 17.9526 28.4415 17.9526 28.4749 17.9191L28.5735 17.8205L30.0466 16.3427L31.0938 15.2916C31.2242 15.1544 31.3814 15.0456 31.5557 14.9719C31.73 14.8981 31.9176 14.8611 32.1068 14.8631V14.8623Z" fill="#FF417A"/>
</g>
<g opacity="0.6">
<path opacity="0.6" d="M2.09459 21.7589C2.62909 21.7633 3.14484 21.5621 3.53515 21.1967L3.66626 21.0655L5.33564 19.3904L6.14997 18.5692L6.18254 18.5366C6.2577 18.4687 6.34553 18.4164 6.44098 18.3825C6.53645 18.3487 6.63763 18.334 6.73876 18.3395C6.8462 18.3395 6.95268 18.3607 7.05187 18.4021C7.15112 18.4434 7.24114 18.504 7.3169 18.5804C7.39259 18.6567 7.45242 18.7473 7.49294 18.8469C7.53347 18.9465 7.55393 19.0531 7.55309 19.1607C7.5527 19.3636 7.48346 19.5604 7.35684 19.7188L7.78192 20.1457C8.02966 19.877 8.1695 19.5262 8.1744 19.1607C8.17175 18.9419 8.12123 18.7263 8.02636 18.5292C7.93157 18.3319 7.79476 18.1579 7.62556 18.0192C7.78727 17.8929 7.92027 17.7335 8.01572 17.5519C8.11122 17.3701 8.16704 17.1702 8.17943 16.9652C8.19182 16.7603 8.16053 16.5551 8.08767 16.3632C8.01475 16.1713 7.90195 15.997 7.75662 15.8521L7.3291 16.2749C7.40589 16.3525 7.46584 16.445 7.50527 16.5468C7.54463 16.6485 7.56257 16.7574 7.55793 16.8664C7.55883 16.9739 7.53837 17.0806 7.49785 17.1802C7.45732 17.2798 7.39743 17.3704 7.32174 17.4467C7.24604 17.5231 7.15602 17.5837 7.05677 17.625C6.95752 17.6664 6.85111 17.6877 6.7436 17.6876C6.52677 17.6814 6.31872 17.6002 6.15486 17.4579L5.34053 16.6367L3.63857 14.9257L3.57342 14.8598C3.17485 14.4801 2.64495 14.2693 2.09459 14.2715C1.81887 14.2711 1.54579 14.3252 1.29106 14.4307C1.03633 14.5363 0.804972 14.6912 0.610314 14.8866C0.415654 15.082 0.26153 15.3139 0.15681 15.5691C0.0520904 15.8243 -0.00115719 16.0976 0.000131558 16.3735C-0.00335456 16.681 0.0624835 16.9854 0.192752 17.264C0.32302 17.5426 0.514369 17.7882 0.752572 17.9826C0.422295 18.2646 0.185388 18.6403 0.0732013 19.0601C-0.0389857 19.4797 -0.0211658 19.9236 0.124304 20.3329C0.269773 20.7423 0.536035 21.0977 0.887857 21.3524C1.23969 21.607 1.66049 21.7487 2.09459 21.7589ZM2.42033 17.8481C2.44987 17.897 2.4614 17.9547 2.4529 18.0111C2.45779 18.0674 2.44649 18.124 2.42033 18.1741C2.39118 18.2286 2.34902 18.2752 2.2976 18.3096C2.24619 18.344 2.18709 18.3652 2.12554 18.3712C2.08253 18.3724 2.03979 18.3642 2.00027 18.3471C1.96075 18.3301 1.92542 18.3047 1.89671 18.2726L1.86414 18.24L1.7998 18.1822L1.63694 18.0192L1.7998 17.8563L1.83238 17.8237L1.93091 17.7251C1.99053 17.6887 2.05762 17.6661 2.12717 17.6592C2.18881 17.6623 2.24854 17.6816 2.30031 17.7152C2.35208 17.7488 2.39405 17.7955 2.42196 17.8506L2.42033 17.8481ZM2.09459 21.1323C1.89663 21.1327 1.70056 21.0939 1.51763 21.0181C1.3347 20.9425 1.16851 20.8314 1.02861 20.6913C0.888703 20.5511 0.777843 20.3848 0.702386 20.2017C0.626925 20.0186 0.588358 19.8224 0.588894 19.6243C0.595278 19.2172 0.759697 18.8286 1.04736 18.5407L1.1459 18.4421L1.37473 18.6718L1.4073 18.7044C1.49317 18.7891 1.59496 18.8558 1.70678 18.9008C1.8186 18.9459 1.93824 18.9683 2.05877 18.9668C2.19553 18.9653 2.33001 18.9315 2.45127 18.8682C2.65756 18.7691 2.82821 18.6086 2.93987 18.4087C2.97245 18.3761 2.97245 18.3101 3.00502 18.2775C3.03185 18.1928 3.04289 18.1039 3.03759 18.0152C3.04504 17.9265 3.03395 17.8371 3.00502 17.7528C2.99692 17.7036 2.97422 17.6579 2.93987 17.6216C2.83727 17.4149 2.66389 17.2518 2.45127 17.1622C2.33001 17.0989 2.19553 17.0651 2.05877 17.0636C1.93008 17.0632 1.80268 17.0893 1.68446 17.1401C1.56624 17.191 1.45971 17.2656 1.37147 17.3593L1.14264 17.5891L1.01153 17.4579C0.739756 17.1755 0.587472 16.799 0.586451 16.4069C0.5857 16.2087 0.624104 16.0123 0.699456 15.8289C0.77481 15.6456 0.885625 15.4789 1.02554 15.3386C1.16545 15.1982 1.3317 15.0869 1.51475 15.011C1.69779 14.9352 1.89401 14.8962 2.09215 14.8964C2.28636 14.894 2.47909 14.9305 2.65896 15.0038C2.83883 15.0771 3.00219 15.1858 3.13939 15.3233L3.27049 15.4545L3.69557 15.8814L4.18417 16.3702L5.62391 17.8156L5.75502 17.9467C5.78759 17.9793 5.82017 17.9793 5.82017 18.0127C5.78759 18.0453 5.75502 18.0453 5.72164 18.0788L5.6231 18.1773L4.15323 19.6569L3.10926 20.7078C2.98056 20.8476 2.82336 20.958 2.6483 21.0316C2.47325 21.1053 2.28441 21.1405 2.09459 21.1348V21.1323Z" fill="#FF417A"/>
</g>
<g opacity="0.6">
<path opacity="0.6" d="M20.8152 32.9922C20.8211 32.4571 20.6221 31.9399 20.259 31.5468L20.1606 31.4156L18.4912 29.7406L17.6769 28.9194L17.6443 28.8868C17.5075 28.7341 17.437 28.5333 17.448 28.3287C17.4471 28.2211 17.4676 28.1145 17.5081 28.0149C17.5486 27.9153 17.6085 27.8247 17.6842 27.7484C17.7599 27.672 17.8499 27.6114 17.9492 27.5701C18.0484 27.5287 18.1548 27.5074 18.2624 27.5074C18.4648 27.5077 18.661 27.5773 18.8185 27.7046L19.2436 27.2777C18.9764 27.029 18.6264 26.8885 18.2615 26.8834C18.0412 26.8859 17.8242 26.9373 17.626 27.0337C17.4279 27.1303 17.2537 27.2695 17.1158 27.4414C16.9904 27.2792 16.8318 27.1457 16.6506 27.0498C16.4694 26.9539 16.2699 26.898 16.0653 26.8855C15.8607 26.8731 15.6558 26.9045 15.4644 26.9778C15.273 27.051 15.0994 27.1644 14.9554 27.3103L15.3804 27.7371C15.4573 27.6603 15.5494 27.6001 15.6508 27.5606C15.7521 27.5211 15.8605 27.503 15.9691 27.5074C16.0767 27.5074 16.1831 27.5287 16.2823 27.5701C16.3816 27.6114 16.4716 27.672 16.5473 27.7484C16.623 27.8247 16.6829 27.9153 16.7234 28.0149C16.7639 28.1145 16.7844 28.2211 16.7835 28.3287C16.7775 28.5463 16.6967 28.7553 16.5546 28.9201L15.7037 29.7414L14.005 31.4442L13.9399 31.5102C13.5615 31.9105 13.3515 32.4412 13.3535 32.9922C13.3522 33.268 13.4055 33.5414 13.5102 33.7966C13.615 34.0518 13.7691 34.2837 13.9637 34.4791C14.1584 34.6744 14.3897 34.8294 14.6444 34.9349C14.8992 35.0405 15.1723 35.0946 15.448 35.0941C15.7549 35.0973 16.0585 35.0311 16.3361 34.9003C16.6138 34.7695 16.8583 34.5776 17.0514 34.339C17.2491 34.5723 17.4946 34.7605 17.7711 34.8908C18.0478 35.0211 18.3491 35.0904 18.6548 35.0941C18.9355 35.1013 19.2148 35.0523 19.4762 34.95C19.7377 34.8476 19.9761 34.694 20.1773 34.4982C20.3786 34.3023 20.5387 34.0682 20.6482 33.8096C20.7578 33.551 20.8146 33.2731 20.8152 32.9922ZM16.9203 32.6663C16.9691 32.6367 17.0268 32.6252 17.0832 32.6337C17.1395 32.6287 17.196 32.64 17.246 32.6663C17.3005 32.6957 17.3469 32.738 17.3811 32.7896C17.4153 32.8412 17.4364 32.9004 17.4423 32.962C17.4434 33.0052 17.4353 33.0481 17.4183 33.0877C17.4012 33.1274 17.3758 33.1629 17.3437 33.1918L17.3112 33.2244L17.246 33.2904L17.0832 33.4533L16.9203 33.2904L16.8878 33.2578L16.79 33.1551C16.7538 33.0951 16.7315 33.0277 16.7249 32.9579C16.7583 32.8413 16.8268 32.7377 16.9211 32.6614L16.9203 32.6663ZM20.2257 32.9922C20.2265 33.1904 20.1881 33.3868 20.1127 33.5702C20.0373 33.7535 19.9265 33.9201 19.7866 34.0605C19.6467 34.2008 19.4805 34.3122 19.2974 34.3881C19.1144 34.4639 18.9181 34.5029 18.72 34.5027C18.3139 34.4962 17.9265 34.3313 17.6402 34.0432L17.5417 33.9446L17.7705 33.7148L17.803 33.6823C17.8879 33.5956 17.9549 33.4929 17.9999 33.3802C18.0449 33.2675 18.0671 33.1469 18.0653 33.0256C18.0637 32.8882 18.03 32.7531 17.9667 32.6312C17.8678 32.425 17.7077 32.2543 17.5082 32.1424C17.4757 32.1098 17.4097 32.1098 17.3772 32.0764C17.2925 32.0495 17.2036 32.0384 17.1149 32.0439C17.0262 32.0362 16.9369 32.0473 16.8527 32.0764C16.8033 32.0845 16.7575 32.1075 16.7216 32.1424C16.5153 32.2453 16.3527 32.4187 16.2632 32.6312C16.1999 32.7531 16.1661 32.8882 16.1646 33.0256C16.1642 33.1545 16.1902 33.2821 16.2409 33.4007C16.2916 33.5192 16.366 33.6261 16.4594 33.7148L16.6882 33.9446L16.5571 34.0758C16.345 34.2825 16.0765 34.422 15.7854 34.4766C15.4943 34.5312 15.1936 34.4986 14.921 34.3829C14.6484 34.2671 14.416 34.0733 14.2531 33.8259C14.09 33.5785 14.0038 33.2885 14.005 32.9922C14.0026 32.7976 14.0389 32.6044 14.1119 32.4239C14.1849 32.2435 14.2931 32.0794 14.4301 31.9412L14.5612 31.81L14.9863 31.3831L15.4749 30.8942L16.9146 29.4489L17.0457 29.3177C17.0783 29.2852 17.0783 29.2517 17.1109 29.2517C17.1434 29.2843 17.1434 29.3177 17.176 29.3503L17.2746 29.4489L18.7477 30.9268L19.7949 31.9779C19.935 32.1063 20.0459 32.2634 20.1204 32.4383C20.1948 32.6132 20.231 32.8021 20.2265 32.9922H20.2257Z" fill="#FF417A"/>
</g>
<path d="M15.5454 12.4654C15.5211 12.8041 15.3692 13.1209 15.1204 13.3518C14.9882 13.487 14.8304 13.5945 14.6561 13.6678C14.4819 13.7411 14.2947 13.7789 14.1057 13.7789C13.9167 13.7789 13.7296 13.7411 13.5553 13.6678C13.3811 13.5945 13.2232 13.487 13.091 13.3518C12.8544 13.1122 12.7048 12.8001 12.6659 12.4654V6.12765C12.6287 5.26114 12.2664 4.44051 11.6513 3.8293C11.1704 3.35129 10.5588 3.0263 9.89365 2.89521C9.22852 2.76412 8.53945 2.8328 7.91323 3.09259C7.28695 3.35239 6.75153 3.7917 6.37427 4.35524C5.997 4.91878 5.79476 5.58137 5.79301 6.25964V6.65396H5.6619C5.18593 6.60877 4.70578 6.66336 4.25208 6.81426C3.79839 6.96516 3.38113 7.20905 3.02696 7.53034C2.67277 7.85167 2.38945 8.24331 2.19508 8.68034C2.0007 9.11737 1.89954 9.59017 1.89805 10.0685C1.89448 10.5211 1.98253 10.9698 2.15692 11.3875C2.3313 11.8051 2.58839 12.1832 2.91271 12.4988C3.55487 13.1236 4.40675 13.4864 5.30196 13.5164H11.3891C11.779 13.524 12.1521 13.6762 12.4363 13.9434C12.7039 14.2147 12.8539 14.5806 12.8539 14.9618C12.8539 15.343 12.7039 15.7088 12.4363 15.9801C12.1813 16.2319 11.8443 16.3835 11.4868 16.4071V17.261C11.7812 17.2552 12.0714 17.1914 12.341 17.0731C12.6106 16.9548 12.8541 16.7844 13.0577 16.5717C13.3108 16.3227 13.5018 16.0175 13.615 15.6809C13.7281 15.3443 13.7604 14.9857 13.7091 14.6343V14.5348H13.8076C14.1581 14.578 14.5138 14.5413 14.8482 14.4276C15.1825 14.3139 15.4868 14.1261 15.7384 13.8781C16.129 13.4819 16.3608 12.9561 16.3899 12.4002H15.5454V12.4654ZM6.67654 7.50697H7.39639C7.47712 7.50819 7.55669 7.5264 7.62994 7.56036C7.70318 7.59432 7.76842 7.64333 7.82153 7.70414C7.90316 7.79014 7.96105 7.89583 7.98957 8.01095C8.01816 8.12607 8.01635 8.24661 7.98435 8.36082C7.9506 8.4596 7.89471 8.54941 7.82108 8.62333C7.74738 8.69732 7.65788 8.75356 7.55927 8.78771C7.49752 8.81444 7.43014 8.82561 7.36303 8.82032C7.27733 8.81961 7.19267 8.80179 7.114 8.76789C7.03527 8.73406 6.96409 8.68486 6.9046 8.62314C6.80825 8.52249 6.74049 8.39788 6.70829 8.26223V8.06505L6.67654 7.50697ZM11.7499 12.7286H5.33454C4.6827 12.701 4.06443 12.4318 3.60001 11.9733C3.11278 11.4855 2.83908 10.8241 2.83908 10.1345C2.83908 9.44484 3.11278 8.78345 3.60001 8.29561C3.84035 8.05459 4.12616 7.86375 4.44082 7.7341C4.75549 7.60439 5.09277 7.5386 5.43307 7.54041H5.85815V8.19709C5.86246 8.60455 6.02719 8.99393 6.31662 9.28065C6.46204 9.43031 6.64176 9.5422 6.84026 9.60657C7.17699 9.73789 7.55075 9.73789 7.88748 9.60657L8.08372 9.50798L8.11631 9.47538C8.22273 9.40985 8.32211 9.3334 8.41271 9.24727C8.51809 9.14113 8.60656 9.01937 8.6749 8.8863L8.77344 8.68912C8.90438 8.33984 8.90438 7.95491 8.77344 7.60556C8.69665 7.41258 8.58636 7.23469 8.44775 7.08007C8.15819 6.81656 7.79036 6.65516 7.40052 6.62056H6.74901V6.29467C6.73204 5.77917 6.87033 5.27047 7.14601 4.83462C7.42163 4.39876 7.82192 4.05589 8.29481 3.85051C8.7677 3.64513 9.29138 3.58674 9.79789 3.68292C10.3043 3.77909 10.7703 4.02539 11.1351 4.38983C11.3754 4.63159 11.5656 4.91851 11.6947 5.23409C11.8239 5.54967 11.8894 5.88768 11.8875 6.22868V12.4002C11.8822 12.4676 11.8934 12.5353 11.92 12.5974V12.696L11.7499 12.7286Z" fill="#FF417A"/>
<path d="M15.7416 22.0546C15.496 21.7982 15.1924 21.6046 14.8563 21.4903C14.5203 21.376 14.1617 21.3443 13.8108 21.3979H13.7122V21.2993C13.7635 20.9479 13.7313 20.5893 13.6181 20.2527C13.5049 19.9161 13.3139 19.6109 13.0608 19.3619C12.8558 19.1534 12.6112 18.988 12.3415 18.8753C12.0718 18.7625 11.7823 18.7047 11.49 18.7052V19.559C11.8474 19.5827 12.1844 19.7343 12.4395 19.986C12.707 20.2574 12.857 20.6232 12.857 21.0044C12.857 21.3856 12.707 21.7514 12.4395 22.0228C12.3048 22.1637 12.1419 22.2746 11.9614 22.3481C11.7809 22.4217 11.587 22.4563 11.3922 22.4497H5.33441C4.88814 22.4497 4.44647 22.54 4.0359 22.715C3.62534 22.89 3.25434 23.1462 2.94516 23.4682C2.44433 23.9672 2.10992 24.6091 1.98769 25.3056C1.86546 26.0022 1.96139 26.7196 2.26235 27.3595C2.56331 27.9994 3.05459 28.5307 3.66895 28.8805C4.28331 29.2304 4.99071 29.3817 5.69435 29.3138H5.79288V29.4124C5.71777 30.1172 5.86371 30.828 6.21047 31.4461C6.55725 32.0643 7.08764 32.5591 7.72812 32.8621C8.36867 33.1651 9.08749 33.2612 9.78502 33.1371C10.4826 33.013 11.1242 32.6748 11.6211 32.1694C12.2359 31.5567 12.597 30.7345 12.6325 29.867V23.5325C12.6781 23.1998 12.8267 22.8899 13.0576 22.6461C13.3272 22.3778 13.692 22.2272 14.0722 22.2272C14.4524 22.2272 14.8172 22.3778 15.0868 22.6461C15.2202 22.7543 15.3297 22.8888 15.4087 23.0414C15.4875 23.1939 15.534 23.3611 15.5453 23.5325H16.3963C16.3663 22.9762 16.1334 22.4504 15.7416 22.0546ZM11.814 23.368V29.7717C11.816 30.1127 11.7505 30.4507 11.6213 30.7663C11.4922 31.0819 11.302 31.3688 11.0616 31.6105C10.5726 32.0922 9.91472 32.3632 9.22856 32.3658C8.54368 32.357 7.88797 32.0868 7.39546 31.6105C7.14804 31.3603 6.9538 31.0625 6.82448 30.7352C6.69516 30.4078 6.63346 30.0576 6.64302 29.7057V29.3798H7.33035C7.52678 29.3773 7.7207 29.3354 7.90062 29.2565C8.08047 29.1775 8.2427 29.0632 8.37757 28.9203C8.52722 28.7742 8.63906 28.5938 8.70333 28.3948C8.83381 28.0454 8.83381 27.6606 8.70333 27.3112L8.60479 27.1141C8.53639 26.981 8.44798 26.8593 8.34253 26.7531C8.24786 26.6586 8.13771 26.5808 8.01684 26.5234V26.4908L7.8206 26.3922C7.48387 26.2608 7.1101 26.2608 6.77337 26.3922C6.57293 26.4698 6.39357 26.5934 6.24973 26.7531C6.10382 26.8932 5.98794 27.0614 5.90913 27.2478C5.83031 27.434 5.7902 27.6344 5.79125 27.8367V28.4934L5.69272 28.526H5.36699C4.85666 28.528 4.35723 28.3783 3.93203 28.096C3.50682 27.8136 3.17501 27.4113 2.97865 26.9401C2.78229 26.4687 2.73024 25.9498 2.8291 25.4488C2.92796 24.948 3.17326 24.4877 3.53392 24.1264C3.99822 23.6669 4.61683 23.3969 5.26926 23.3687H11.8149L11.814 23.368ZM6.64302 27.7357C6.66786 27.5974 6.73672 27.4708 6.83932 27.3748C6.92457 27.2936 7.02937 27.2359 7.14353 27.2073C7.25775 27.1787 7.37739 27.1803 7.49077 27.2118C7.58938 27.246 7.67888 27.3023 7.75251 27.3762C7.82621 27.4502 7.88203 27.54 7.91585 27.6388C7.94785 27.7529 7.9496 27.8734 7.92107 27.9886C7.89255 28.1037 7.8346 28.2094 7.75297 28.2954C7.63668 28.4059 7.48735 28.4752 7.32789 28.4925H6.64063L6.64302 27.7357Z" fill="#FF417A"/>
<path d="M31.1889 23.4673C30.8771 23.1488 30.5056 22.895 30.0956 22.7202C29.6856 22.5454 29.2453 22.4533 28.7997 22.4489H22.7126C22.4273 22.449 22.1484 22.3643 21.9113 22.2056C21.6742 22.0469 21.4896 21.8213 21.3809 21.5574C21.2721 21.2935 21.2443 21.0033 21.3007 20.7235C21.3571 20.4437 21.4954 20.187 21.6979 19.986C21.9529 19.7342 22.2899 19.5827 22.6474 19.559V18.7052C22.06 18.7195 21.4995 18.9539 21.0766 19.3619C20.8234 19.6109 20.6324 19.9161 20.5193 20.2527C20.4061 20.5893 20.3738 20.9479 20.4251 21.2993V21.3979H20.3266C19.9747 21.3459 19.6156 21.3783 19.2788 21.4925C18.9419 21.6067 18.637 21.7993 18.3892 22.0546C17.9986 22.4508 17.7668 22.9767 17.7378 23.5325H18.5888C18.6199 23.1956 18.7708 22.8812 19.0138 22.6461C19.2835 22.3778 19.6483 22.2272 20.0285 22.2272C20.4088 22.2272 20.7735 22.3778 21.0432 22.6461C21.2798 22.8858 21.4294 23.1978 21.4683 23.5325V29.867C21.5054 30.7338 21.8676 31.5547 22.4829 32.1661C22.7986 32.4885 23.1754 32.7446 23.5913 32.9193C24.0071 33.0942 24.4536 33.1842 24.9047 33.1842C25.3558 33.1842 25.8023 33.0942 26.2181 32.9193C26.634 32.7446 27.0108 32.4885 27.3265 32.1661C27.6826 31.8066 27.9552 31.3732 28.1249 30.8964C28.2947 30.4196 28.3574 29.9113 28.3087 29.4075V29.3089H28.4715C29.1777 29.384 29.8897 29.2362 30.5078 28.8864C31.1259 28.5366 31.6193 28.0021 31.9186 27.3578C32.2181 26.7134 32.3086 25.9916 32.1776 25.2933C32.0466 24.595 31.7006 23.9551 31.1881 23.4632L31.1889 23.4673ZM27.4903 28.4918H26.8029C26.7222 28.4905 26.6427 28.4723 26.5695 28.4384C26.4962 28.4044 26.4309 28.3554 26.3779 28.2946C26.2962 28.2086 26.2383 28.1028 26.2097 27.9878C26.1812 27.8727 26.183 27.7521 26.215 27.6379C26.2488 27.5391 26.3046 27.4493 26.3783 27.3754C26.4519 27.3014 26.5414 27.2452 26.6401 27.211C26.7535 27.1795 26.8731 27.178 26.9873 27.2065C27.1015 27.235 27.2063 27.2928 27.2915 27.3739C27.3878 27.4746 27.4556 27.5992 27.4878 27.7349L27.4903 28.4918ZM30.5993 27.7365C30.3655 27.9769 30.0855 28.1677 29.7764 28.2974C29.4671 28.4271 29.135 28.4933 28.7997 28.4918H28.4055V27.8351C28.4013 27.4276 28.2365 27.0383 27.9471 26.7515C27.7943 26.6022 27.6173 26.4801 27.4235 26.3906C27.0867 26.2592 26.713 26.2592 26.3762 26.3906L26.1799 26.4891H26.0815C25.9771 26.5576 25.8785 26.6345 25.7866 26.7189C25.6812 26.8251 25.5928 26.9468 25.5244 27.0798L25.4259 27.277C25.2954 27.6264 25.2954 28.0112 25.4259 28.3606C25.5031 28.5615 25.6264 28.7415 25.7858 28.8861C26.0718 29.1549 26.4416 29.3171 26.8331 29.3456H27.4845V29.6715C27.4974 30.0237 27.4371 30.3749 27.3076 30.7027C27.1781 31.0305 26.9822 31.328 26.7321 31.5763C26.2446 32.0573 25.5886 32.3289 24.9039 32.3332C24.219 32.3244 23.5634 32.0542 23.0708 31.578C22.8305 31.3362 22.6402 31.0493 22.5111 30.7337C22.382 30.4181 22.3165 30.0801 22.3184 29.7391V23.2677H28.833C29.3406 23.2891 29.8311 23.4571 30.2451 23.7516C30.6592 24.0461 30.9791 24.4543 31.1661 24.9268C31.353 25.3994 31.3991 25.9161 31.2986 26.4143C31.1982 26.9125 30.9556 27.3709 30.6002 27.7341L30.5993 27.7365Z" fill="#FF417A"/>
</svg>
